<svg width="292" height="60" viewBox="0 0 292 60" fill="none" xmlns="http://www.w3.org/2000/svg">
<path d="M29.7907 4.27882C44.0533 4.27882 55.734 15.3742 56.73 29.4355C56.7767 28.7908 56.7993 28.1415 56.7993 27.4842C56.802 12.5122 44.7087 0.375488 29.7907 0.375488C14.8727 0.375488 2.78198 12.5122 2.78198 27.4842C2.78198 28.1415 2.80665 28.7908 2.85132 29.4355C3.84932 15.3742 15.528 4.27882 29.7907 4.27882Z" fill="#505041"/>
<path d="M47.8987 29.4777C46.9427 20.287 39.2007 13.125 29.7907 13.125C20.3833 13.1223 12.642 20.287 11.6853 29.475C11.6493 29.131 11.6227 28.7857 11.6053 28.437C11.5913 28.1443 11.584 27.8497 11.584 27.553C11.584 17.4597 19.7333 9.28101 29.7907 9.28101C39.848 9.28101 48 17.4623 48 27.5557C48 27.9437 47.9873 28.3283 47.9633 28.7097C47.9473 28.967 47.9253 29.223 47.8987 29.4777Z" fill="#505041"/>
<path d="M39.4205 29.1653C38.5111 24.6619 34.5451 21.2739 29.7911 21.2786C25.0391 21.2866 21.0778 24.6793 20.1758 29.1806C20.0498 28.5479 19.9805 27.8906 19.9805 27.2213C19.9758 21.7799 24.3671 17.3653 29.7885 17.3606C35.2098 17.3559 39.6085 21.7626 39.6131 27.2039C39.6131 27.8759 39.5465 28.5306 39.4205 29.1653Z" fill="#505041"/>
<path d="M29.761 55.8721C14.191 55.8721 1.45236 43.7054 0.46903 28.3301C0.429696 28.9641 0.405029 29.6021 0.405029 30.2467C0.405029 46.5181 13.5484 59.7087 29.761 59.7087C45.9737 59.7087 59.117 46.5181 59.117 30.2467C59.117 29.6021 59.095 28.9621 59.053 28.3301C58.067 43.7054 45.331 55.8721 29.761 55.8721Z" fill="#505041"/>
<path d="M29.761 47.0163C40.2676 47.0163 48.8996 38.959 49.8556 28.6643C49.893 29.0736 49.919 29.4876 49.933 29.9043C49.941 30.1263 49.9443 30.349 49.9443 30.5716C49.9443 41.7583 40.9076 50.8276 29.761 50.8276C18.6143 50.8276 9.57764 41.7583 9.57764 30.5716C9.57764 30.149 9.5903 29.7303 9.61564 29.3156C9.62897 29.0976 9.64564 28.8803 9.6663 28.6643C10.623 38.959 19.2543 47.0163 29.761 47.0163Z" fill="#505041"/>
<path d="M17.8777 28.7017C18.7997 34.455 23.769 38.8497 29.761 38.8497H29.7657C35.7584 38.8497 40.7277 34.455 41.649 28.7017C41.7484 29.329 41.8024 29.9763 41.8024 30.6337C41.8024 37.307 36.413 42.7157 29.7637 42.7157C23.1137 42.7157 17.7244 37.307 17.7244 30.6337C17.7244 29.9763 17.7764 29.3317 17.8777 28.7017Z" fill="#505041"/>
<path d="M151.293 8.73853H146.601V50.8725H151.293V8.73853Z" fill="#505041"/>
<path fill-rule="evenodd" clip-rule="evenodd" d="M136.719 30.1311C136.719 39.6718 130.327 46.7831 121.707 46.7831C113.087 46.7831 106.754 39.6718 106.754 30.1311C106.754 20.5904 113.087 13.4791 121.707 13.4791C130.327 13.4791 136.719 20.5904 136.719 30.1311ZM101.594 30.1311C101.594 42.3384 110.155 51.3464 121.707 51.3464C133.259 51.3464 141.879 42.3384 141.879 30.1311C141.879 17.9238 133.259 8.91577 121.707 8.91577C110.155 8.91577 101.594 17.9238 101.594 30.1311Z" fill="#505041"/>
<path d="M162.535 8.73853H157.141V15.3759H162.535V8.73853Z" fill="#505041"/>
<path d="M162.183 21.0051H157.493V50.8725H162.183V21.0051Z" fill="#505041"/>
<path fill-rule="evenodd" clip-rule="evenodd" d="M187.393 37.4203C187.393 43.5837 183.934 47.317 178.011 47.317C174.258 47.317 171.854 45.361 171.854 42.2797C171.854 38.783 174.727 36.6497 179.125 36.6497H187.393V37.4203ZM192.085 31.613C192.085 24.9757 187.276 20.531 179.595 20.531C172.968 20.531 167.573 24.7977 167.045 30.5463H171.502C171.736 27.287 175.138 24.561 179.477 24.561C184.52 24.561 187.393 27.3463 187.393 31.435C187.393 32.383 186.807 33.035 185.517 33.035H178.832C171.678 33.035 167.045 36.6497 167.045 42.339C167.045 47.791 171.092 51.3463 177.307 51.3463C181.881 51.3463 185.81 49.1537 187.393 45.717V50.8723H192.085V31.613Z" fill="#505041"/>
<path d="M207.529 51.3463C200.667 51.3463 196.211 47.4943 195.742 41.2723H200.257C200.667 45.1243 203.248 47.1983 207.529 47.1983C211.223 47.1983 213.685 45.1243 213.685 42.6943C213.685 38.6643 210.153 38.1057 206.293 37.4957C201.637 36.7597 196.504 35.9483 196.504 28.887C196.504 23.8497 200.726 20.531 206.942 20.531C213.451 20.531 217.849 24.1463 218.201 29.657H213.627C213.217 25.8643 209.522 24.561 206.825 24.561C203.365 24.561 201.078 26.2203 201.078 28.8277C201.078 32.3263 204.339 32.7983 208.029 33.3323C212.838 34.0283 218.377 34.8303 218.377 42.5757C218.377 47.909 214.037 51.3463 207.529 51.3463Z" fill="#505041"/>
<path fill-rule="evenodd" clip-rule="evenodd" d="M246.396 35.9388C246.396 42.4575 242.233 47.0795 236.134 47.0795C230.094 47.0795 225.931 42.4575 225.931 35.9388C225.931 29.4202 230.094 24.7982 236.134 24.7982C242.233 24.7982 246.396 29.4202 246.396 35.9388ZM221.123 35.9388C221.123 44.8868 227.397 51.3462 236.134 51.3462C244.93 51.3462 251.205 44.8868 251.205 35.9388C251.205 26.9315 244.93 20.5315 236.134 20.5315C227.397 20.5315 221.123 26.9315 221.123 35.9388Z" fill="#505041"/>
<path d="M257.903 50.8723V25.2129H251.747V21.0049H257.903V17.9829C257.903 12.2943 261.481 8.73828 267.11 8.73828H271.801V12.9456H267.345C264.471 12.9456 262.595 14.8423 262.595 18.0423V21.0049H271.801V25.2129H262.595V50.8723H257.903Z" fill="#505041"/>
<path d="M282.649 11.4646H277.959V21.0053H271.801V25.2126H277.959V41.5093C277.959 47.3173 281.594 50.8726 287.223 50.8726H291.739V46.6653H287.399C284.526 46.6653 282.649 44.7093 282.649 41.3913V25.2126H291.739V21.0053H282.649V11.4646Z" fill="#505041"/>
</svg>
